<svg width="48" height="48" viewBox="0 0 48 48" fill="none" xmlns="http://www.w3.org/2000/svg">
<circle cx="24" cy="24" r="24" fill="#344966"/>
<path d="M13.1665 21.0284C13.1665 19.0797 14.7462 17.5 16.6949 17.5V17.5C17.8746 17.5 18.9762 16.9104 19.6306 15.9288L19.6665 15.875C20.3433 14.8598 21.4827 14.25 22.7028 14.25H25.2968C26.517 14.25 27.6564 14.8598 28.3332 15.875L28.3691 15.9288C29.0234 16.9104 30.1251 17.5 31.3048 17.5V17.5C33.2535 17.5 34.8332 19.0797 34.8332 21.0284V29.75C34.8332 31.9591 33.0423 33.75 30.8332 33.75H17.1665C14.9574 33.75 13.1665 31.9591 13.1665 29.75V21.0284Z" stroke="#F0F4EF" stroke-width="2" stroke-linecap="round" stroke-linejoin="round"/>
<ellipse cx="23.9998" cy="25.0833" rx="4.33333" ry="4.33333" stroke="#F0F4EF" stroke-width="2" stroke-linecap="round" stroke-linejoin="round"/>
</svg>
