<svg width="255" height="255" viewBox="0 0 255 255" fill="none" xmlns="http://www.w3.org/2000/svg">
<rect width="255" height="255" rx="16" fill="#F0F4EF"/>
<path d="M76.875 180.937L79.353 165.008C79.5616 163.667 80.4244 162.53 81.685 162.028C87.7239 159.622 106.659 152.812 127.5 152.812C148.341 152.812 167.276 159.622 173.315 162.028C174.576 162.53 175.438 163.667 175.647 165.008L178.125 180.937" stroke="#344966" stroke-width="7" stroke-linecap="round" stroke-linejoin="round"/>
<path d="M127.5 127.5C143.033 127.5 155.625 114.908 155.625 99.375C155.625 83.842 143.033 71.25 127.5 71.25C111.967 71.25 99.375 83.842 99.375 99.375C99.375 114.908 111.967 127.5 127.5 127.5Z" stroke="#344966" stroke-width="7" stroke-linecap="round" stroke-linejoin="round"/>
</svg>
