<svg width="20" height="19" viewBox="0 0 20 19" fill="none" xmlns="http://www.w3.org/2000/svg">
<path d="M9.30756 1.49122C9.56419 0.876454 10.4352 0.876452 10.6918 1.49122L12.3835 5.54369C12.486 5.78938 12.7112 5.96228 12.975 5.99799L17.4539 6.60419C18.1041 6.69219 18.3358 7.51368 17.8275 7.9285L14.3774 10.7439C14.1559 10.9246 14.0564 11.2156 14.1209 11.4941L15.2234 16.2584C15.3785 16.9286 14.6249 17.4366 14.0619 17.0414L10.4305 14.4927C10.172 14.3113 9.82739 14.3113 9.56881 14.4927L5.93744 17.0415C5.3744 17.4366 4.62081 16.9287 4.77588 16.2585L5.87834 11.494C5.94278 11.2155 5.84331 10.9246 5.62184 10.7439L2.17181 7.92849C1.66348 7.51367 1.89523 6.69219 2.5454 6.6042L7.02434 5.99799C7.28818 5.96228 7.5133 5.78938 7.61587 5.54369L9.30756 1.49122Z" fill="#BFCC94" stroke="#BFCC94" stroke-width="2" stroke-miterlimit="3.3292" stroke-linecap="round" stroke-linejoin="round"/>
</svg>
